<svg xmlns="http://www.w3.org/2000/svg" width="37" height="37" viewBox="0 0 37 37" fill="none">
  <path d="M34.4238 2.75754C34.4106 2.6938 34.3796 2.63513 34.3343 2.58841C34.289 2.54169 34.2313 2.50886 34.168 2.49376C29.9468 1.46171 20.1935 5.13946 14.9093 10.4215C13.9668 11.3564 13.1076 12.3716 12.3415 13.4557C10.712 13.3115 9.08244 13.4319 7.69365 14.0373C3.77519 15.7619 2.63431 20.262 2.31648 22.1978C2.29846 22.3037 2.30526 22.4124 2.33635 22.5153C2.36744 22.6182 2.42198 22.7125 2.49567 22.7907C2.56937 22.8689 2.66021 22.929 2.76105 22.9662C2.86189 23.0034 2.96998 23.0166 3.07683 23.005L9.36928 22.3109C9.37378 22.7853 9.4024 23.2592 9.45505 23.7307C9.48671 24.0581 9.63206 24.3641 9.86585 24.5956L12.3025 27.0265C12.5342 27.26 12.8401 27.4053 13.1674 27.4373C13.6363 27.4897 14.1075 27.5184 14.5792 27.5231L13.8888 33.8076C13.8773 33.9144 13.8907 34.0224 13.9279 34.1232C13.9651 34.224 14.0252 34.3147 14.1034 34.3884C14.1816 34.4621 14.2758 34.5166 14.3786 34.5477C14.4814 34.5789 14.5901 34.5858 14.696 34.5679C16.6282 34.258 21.1362 33.1172 22.8508 29.1987C23.4561 27.8099 23.5801 26.1883 23.4403 24.5667C24.527 23.8005 25.5449 22.9411 26.4824 21.9981C31.7832 16.724 35.44 7.18842 34.4238 2.75754ZM21.1939 15.7064C20.7098 15.2227 20.3801 14.6063 20.2465 13.9352C20.1128 13.2641 20.1812 12.5684 20.4429 11.9361C20.7047 11.3039 21.1481 10.7635 21.717 10.3833C22.286 10.003 22.9549 9.80009 23.6392 9.80009C24.3235 9.80009 24.9924 10.003 25.5614 10.3833C26.1303 10.7635 26.5737 11.3039 26.8355 11.9361C27.0972 12.5684 27.1656 13.2641 27.0319 13.9352C26.8983 14.6063 26.5686 15.2227 26.0846 15.7064C25.7636 16.0278 25.3824 16.2828 24.9628 16.4568C24.5432 16.6308 24.0934 16.7203 23.6392 16.7203C23.185 16.7203 22.7352 16.6308 22.3156 16.4568C21.896 16.2828 21.5148 16.0278 21.1939 15.7064Z" fill="#99F94E"/>
  <path d="M12.1367 28.787C11.7418 29.1827 11.1083 29.3369 10.3458 29.4688C8.63268 29.7607 7.11992 28.2803 7.42766 26.5485C7.54514 25.8919 7.89252 24.9716 8.10873 24.7554C8.15599 24.709 8.18744 24.649 8.19863 24.5837C8.20981 24.5185 8.20016 24.4514 8.17104 24.392C8.14191 24.3325 8.0948 24.2838 8.0364 24.2526C7.97799 24.2215 7.91126 24.2095 7.84567 24.2185C6.88768 24.3357 5.99645 24.77 5.31384 25.4523C3.61947 27.1481 3.45947 33.4406 3.45947 33.4406C3.45947 33.4406 9.75553 33.2806 11.4499 31.5848C12.1343 30.9027 12.5692 30.0101 12.6845 29.0508C12.7111 28.7495 12.3443 28.5701 12.1367 28.787Z" fill="#99F94E"/>
</svg>